<svg xmlns="http://www.w3.org/2000/svg" width="131.345" height="71.133" viewBox="0 0 131.345 71.133">
  <g id="Group_10" data-name="Group 10" transform="translate(-509.288 -329.654)">
    <g id="Group_9" data-name="Group 9">
      <path id="Path_4" data-name="Path 4" d="M550.713,352.25c8.734,0,12.675,2.431,12.675,7.29s-3.941,7.29-12.675,7.29H544.54v10.934H538.7V352.25Zm.328,11c3.743,0,6.272-1.083,6.272-3.71s-2.529-3.711-6.272-3.711h-6.5v7.421Z"/>
      <path id="Path_5" data-name="Path 5" d="M564.388,352.25h28.3v3.579h-11.23v21.935h-5.844V355.829h-11.23Z"/>
      <path id="Path_6" data-name="Path 6" d="M593.788,366.271c-.326,4.6.591,7.881,5.682,7.881,4.727,0,5.911-2.43,5.911-5.878V352.25h5.845v15.565c0,7.093-4.829,10.376-11.756,10.376-6.864,0-11.69-3.283-11.69-10.376Z"/>
    </g>
    <path id="Path_7" data-name="Path 7" d="M574.961,331.5c35.248,0,63.823,15.1,63.823,33.719s-28.575,33.718-63.823,33.718-63.824-15.1-63.824-33.718S539.712,331.5,574.961,331.5m0-1.848c-17.344,0-33.678,3.584-45.994,10.09-12.69,6.7-19.679,15.752-19.679,25.477s6.989,18.772,19.679,25.476c12.316,6.507,28.65,10.09,45.994,10.09s33.677-3.583,45.993-10.09c12.69-6.7,19.679-15.752,19.679-25.476s-6.989-18.773-19.679-25.477c-12.316-6.506-28.65-10.09-45.993-10.09Z" fill="#231f20"/>
  </g>
</svg>
